<svg width="250" height="250" viewBox="0 0 250 250" fill="none" xmlns="http://www.w3.org/2000/svg">
<g clip-path="url(#clip0_94_291)">
<rect width="250" height="250" rx="40" fill="white"/>
<circle cx="124.878" cy="124.775" r="17.3261" fill="black"/>
<circle cx="124.93" cy="166.092" r="11.5507" fill="black"/>
<circle cx="124.955" cy="197.687" r="8.66303" fill="black"/>
<circle cx="124.981" cy="223.933" r="5.77536" fill="black"/>
<circle cx="124.994" cy="245.796" r="4.33152" fill="black"/>
<circle cx="124.93" cy="84.2191" r="11.5507" transform="rotate(180 124.93 84.2191)" fill="black"/>
<circle cx="124.904" cy="52.6242" r="8.66303" transform="rotate(180 124.904 52.6242)" fill="black"/>
<circle cx="124.878" cy="26.378" r="5.77536" transform="rotate(180 124.878 26.378)" fill="black"/>
<circle cx="124.865" cy="4.5148" r="4.33152" transform="rotate(180 124.865 4.5148)" fill="black"/>
<circle cx="95.9832" cy="154.102" r="11.5507" transform="rotate(45 95.9832 154.102)" fill="black"/>
<circle cx="73.6602" cy="176.461" r="8.66303" transform="rotate(45 73.6602 176.461)" fill="black"/>
<circle cx="55.1196" cy="195.038" r="5.77536" transform="rotate(45 55.1196 195.038)" fill="black"/>
<circle cx="39.6689" cy="210.507" r="4.33152" transform="rotate(45 39.6689 210.507)" fill="black"/>
<circle cx="26.2786" cy="223.915" r="2.88768" transform="rotate(45 26.2786 223.915)" fill="black"/>
<circle cx="14.9482" cy="235.264" r="1.44384" transform="rotate(45 14.9482 235.264)" fill="black"/>
<circle cx="153.876" cy="96.209" r="11.5507" transform="rotate(-135 153.876 96.209)" fill="black"/>
<circle cx="176.199" cy="73.8497" r="8.66303" transform="rotate(-135 176.199 73.8497)" fill="black"/>
<circle cx="194.739" cy="55.2728" r="5.77536" transform="rotate(-135 194.739 55.2728)" fill="black"/>
<circle cx="210.19" cy="39.804" r="4.33152" transform="rotate(-135 210.19 39.804)" fill="black"/>
<circle cx="223.58" cy="26.3953" r="2.88768" transform="rotate(-135 223.58 26.3953)" fill="black"/>
<circle cx="234.91" cy="15.0468" r="1.44384" transform="rotate(-135 234.91 15.0468)" fill="black"/>
<circle cx="57.6893" cy="152.35" r="8.66303" transform="rotate(68 57.6893 152.35)" fill="black"/>
<circle cx="33.3641" cy="162.206" r="5.77536" transform="rotate(68 33.3641 162.206)" fill="black"/>
<circle cx="13.0975" cy="170.408" r="4.33152" transform="rotate(68 13.0975 170.408)" fill="black"/>
<circle cx="192.17" cy="97.9607" r="8.66303" transform="rotate(-112 192.17 97.9607)" fill="black"/>
<circle cx="216.496" cy="88.1049" r="5.77536" transform="rotate(-112 216.496 88.1049)" fill="black"/>
<circle cx="236.762" cy="79.903" r="4.33152" transform="rotate(-112 236.762 79.903)" fill="black"/>
<circle cx="57.8238" cy="97.6313" r="8.66303" transform="rotate(112.322 57.8238 97.6313)" fill="black"/>
<circle cx="33.5345" cy="87.6867" r="5.77536" transform="rotate(112.322 33.5345 87.6867)" fill="black"/>
<circle cx="13.3047" cy="79.3948" r="4.33152" transform="rotate(112.322 13.3047 79.3948)" fill="black"/>
<circle cx="192.036" cy="152.679" r="8.66303" transform="rotate(-67.6784 192.036 152.679)" fill="black"/>
<circle cx="216.325" cy="162.624" r="5.77536" transform="rotate(-67.6784 216.325 162.624)" fill="black"/>
<circle cx="236.555" cy="170.916" r="4.33152" transform="rotate(-67.6784 236.555 170.916)" fill="black"/>
<circle cx="97.3099" cy="58.0886" r="8.66303" transform="rotate(157.637 97.3099 58.0886)" fill="black"/>
<circle cx="87.3003" cy="33.8259" r="5.77536" transform="rotate(157.637 87.3003 33.8259)" fill="black"/>
<circle cx="78.9703" cy="13.6118" r="4.33152" transform="rotate(157.637 78.9703 13.6118)" fill="black"/>
<circle cx="152.549" cy="192.222" r="8.66303" transform="rotate(-22.3626 152.549 192.222)" fill="black"/>
<circle cx="162.559" cy="216.485" r="5.77536" transform="rotate(-22.3626 162.559 216.485)" fill="black"/>
<circle cx="170.889" cy="236.699" r="4.33152" transform="rotate(-22.3626 170.889 236.699)" fill="black"/>
<circle cx="152.105" cy="57.9073" r="8.66303" transform="rotate(-157.976 152.105 57.9073)" fill="black"/>
<circle cx="161.923" cy="33.5668" r="5.77536" transform="rotate(-157.976 161.923 33.5668)" fill="black"/>
<circle cx="170.11" cy="13.2942" r="4.33152" transform="rotate(-157.976 170.11 13.2942)" fill="black"/>
<circle cx="97.7547" cy="192.403" r="8.66303" transform="rotate(22.0241 97.7547 192.403)" fill="black"/>
<circle cx="87.9365" cy="216.744" r="5.77536" transform="rotate(22.0241 87.9365 216.744)" fill="black"/>
<circle cx="79.7495" cy="237.017" r="4.33152" transform="rotate(22.0241 79.7495 237.017)" fill="black"/>
<circle cx="179.093" cy="42.5519" r="5.77536" transform="rotate(-146.717 179.093 42.5519)" fill="black"/>
<circle cx="191.08" cy="24.2678" r="4.33152" transform="rotate(-146.717 191.08 24.2678)" fill="black"/>
<circle cx="201.469" cy="8.41915" r="2.88768" transform="rotate(-146.717 201.469 8.41915)" fill="black"/>
<circle cx="70.7664" cy="207.759" r="5.77536" transform="rotate(33.2827 70.7664 207.759)" fill="black"/>
<circle cx="58.7794" cy="226.043" r="4.33152" transform="rotate(33.2827 58.7794 226.043)" fill="black"/>
<circle cx="48.3909" cy="241.891" r="2.88768" transform="rotate(33.2827 48.3909 241.891)" fill="black"/>
<circle cx="206.877" cy="70.0051" r="5.77536" transform="rotate(-123.91 206.877 70.0051)" fill="black"/>
<circle cx="225.015" cy="57.7969" r="4.33152" transform="rotate(-123.91 225.015 57.7969)" fill="black"/>
<circle cx="240.734" cy="47.2141" r="2.88768" transform="rotate(-123.91 240.734 47.2141)" fill="black"/>
<circle cx="42.982" cy="180.306" r="5.77536" transform="rotate(56.0895 42.982 180.306)" fill="black"/>
<circle cx="24.8447" cy="192.514" r="4.33152" transform="rotate(56.0895 24.8447 192.514)" fill="black"/>
<circle cx="9.12516" cy="203.096" r="2.88768" transform="rotate(56.0895 9.12516 203.096)" fill="black"/>
<circle cx="221.833" cy="106.008" r="5.77536" transform="rotate(-101.148 221.833 106.008)" fill="black"/>
<circle cx="243.281" cy="101.768" r="4.33152" transform="rotate(-101.148 243.281 101.768)" fill="black"/>
<circle cx="28.0254" cy="144.303" r="5.77536" transform="rotate(78.8524 28.0254 144.303)" fill="black"/>
<circle cx="6.57716" cy="148.543" r="4.33152" transform="rotate(78.8524 6.57716 148.543)" fill="black"/>
<circle cx="221.796" cy="144.492" r="5.77536" transform="rotate(-78.6811 221.796 144.492)" fill="black"/>
<circle cx="243.236" cy="148.77" r="4.33152" transform="rotate(-78.6811 243.236 148.77)" fill="black"/>
<circle cx="28.0631" cy="105.819" r="5.77535" transform="rotate(101.319 28.0631 105.819)" fill="black"/>
<circle cx="6.6228" cy="101.54" r="4.33152" transform="rotate(101.319 6.6228 101.54)" fill="black"/>
<circle cx="207.094" cy="179.982" r="5.77536" transform="rotate(-56.2557 207.094 179.982)" fill="black"/>
<circle cx="225.281" cy="192.116" r="4.33152" transform="rotate(-56.2557 225.281 192.116)" fill="black"/>
<circle cx="241.045" cy="202.632" r="2.88768" transform="rotate(-56.2557 241.045 202.632)" fill="black"/>
<circle cx="42.7651" cy="70.3285" r="5.77536" transform="rotate(123.744 42.7651 70.3285)" fill="black"/>
<circle cx="24.5781" cy="58.1943" r="4.33152" transform="rotate(123.744 24.5781 58.1943)" fill="black"/>
<circle cx="8.81385" cy="47.6787" r="2.88768" transform="rotate(123.744 8.81385 47.6787)" fill="black"/>
<circle cx="179.841" cy="207.264" r="5.77536" transform="rotate(-33.7434 179.841 207.264)" fill="black"/>
<circle cx="191.996" cy="225.437" r="4.33152" transform="rotate(-33.7434 191.996 225.437)" fill="black"/>
<circle cx="202.533" cy="241.187" r="2.88768" transform="rotate(-33.7434 202.533 241.187)" fill="black"/>
<circle cx="70.0186" cy="43.0473" r="5.77536" transform="rotate(146.257 70.0186 43.0473)" fill="black"/>
<circle cx="57.8635" cy="24.8744" r="4.33152" transform="rotate(146.257 57.8635 24.8744)" fill="black"/>
<circle cx="47.3266" cy="9.12398" r="2.88768" transform="rotate(146.257 47.3266 9.12398)" fill="black"/>
<circle cx="144.087" cy="222.057" r="5.77536" transform="rotate(-11.1533 144.087 222.057)" fill="black"/>
<circle cx="148.329" cy="243.505" r="4.33152" transform="rotate(-11.1533 148.329 243.505)" fill="black"/>
<circle cx="105.772" cy="28.2535" r="5.77536" transform="rotate(168.847 105.772 28.2535)" fill="black"/>
<circle cx="101.53" cy="6.80557" r="4.33152" transform="rotate(168.847 101.53 6.80557)" fill="black"/>
<circle cx="106.316" cy="222.163" r="5.77536" transform="rotate(10.8919 106.316 222.163)" fill="black"/>
<circle cx="102.197" cy="243.635" r="4.33152" transform="rotate(10.8919 102.197 243.635)" fill="black"/>
<circle cx="143.544" cy="28.1476" r="5.77536" transform="rotate(-169.108 143.544 28.1476)" fill="black"/>
<circle cx="147.663" cy="6.67573" r="4.33152" transform="rotate(-169.108 147.663 6.67573)" fill="black"/>
<circle cx="83.993" cy="125.155" r="11.5507" transform="rotate(90 83.993 125.155)" fill="black"/>
<circle cx="52.398" cy="125.181" r="8.66303" transform="rotate(90 52.398 125.181)" fill="black"/>
<circle cx="26.1519" cy="125.207" r="5.77536" transform="rotate(90 26.1519 125.207)" fill="black"/>
<circle cx="4.2886" cy="125.22" r="4.33152" transform="rotate(90 4.2886 125.22)" fill="black"/>
<circle cx="165.866" cy="125.155" r="11.5507" transform="rotate(-90 165.866 125.155)" fill="black"/>
<circle cx="197.46" cy="125.13" r="8.66303" transform="rotate(-90 197.46 125.13)" fill="black"/>
<circle cx="223.707" cy="125.104" r="5.77536" transform="rotate(-90 223.707 125.104)" fill="black"/>
<circle cx="245.57" cy="125.091" r="4.33152" transform="rotate(-90 245.57 125.091)" fill="black"/>
<circle cx="95.9829" cy="96.209" r="11.5507" transform="rotate(135 95.9829 96.209)" fill="black"/>
<circle cx="73.6236" cy="73.8861" r="8.66303" transform="rotate(135 73.6236 73.8861)" fill="black"/>
<circle cx="55.0465" cy="55.3456" r="5.77536" transform="rotate(135 55.0465 55.3456)" fill="black"/>
<circle cx="39.5779" cy="39.8949" r="4.33152" transform="rotate(135 39.5779 39.8949)" fill="black"/>
<circle cx="26.1691" cy="26.5044" r="2.88768" transform="rotate(135 26.1691 26.5044)" fill="black"/>
<circle cx="14.8207" cy="15.174" r="1.44384" transform="rotate(135 14.8207 15.174)" fill="black"/>
<circle cx="153.875" cy="154.102" r="11.5507" transform="rotate(-45 153.875 154.102)" fill="black"/>
<circle cx="176.235" cy="176.425" r="8.66303" transform="rotate(-45 176.235 176.425)" fill="black"/>
<circle cx="194.812" cy="194.965" r="5.77536" transform="rotate(-45 194.812 194.965)" fill="black"/>
<circle cx="210.28" cy="210.416" r="4.33152" transform="rotate(-45 210.28 210.416)" fill="black"/>
<circle cx="223.689" cy="223.806" r="2.88768" transform="rotate(-45 223.689 223.806)" fill="black"/>
<circle cx="235.038" cy="235.137" r="1.44384" transform="rotate(-45 235.038 235.137)" fill="black"/>
</g>
<rect x="7" y="7" width="236" height="236" rx="33" stroke="black" stroke-width="14"/>
<defs>
<clipPath id="clip0_94_291">
<rect width="250" height="250" rx="40" fill="white"/>
</clipPath>
</defs>
</svg>
